<svg xmlns="http://www.w3.org/2000/svg" xmlns:xlink="http://www.w3.org/1999/xlink" width="1366" zoomAndPan="magnify" viewBox="0 0 1024.5 576" height="768" preserveAspectRatio="xMidYMid meet" version="1.0"><defs><g/></defs><path fill="#000000" d="M 302.015625 503.621094 L 302.015625 443.171875 C 302.015625 421.261719 285.242188 403.003906 263.421875 401.15625 C 241.597656 399.308594 224.828125 381.050781 224.828125 359.140625 L 224.828125 246.125 C 224.828125 217.585938 247.953125 194.449219 276.484375 194.449219 L 363.507812 194.449219 C 392.039062 194.449219 415.164062 171.3125 415.164062 142.769531 L 415.164062 91.984375 C 415.164062 63.441406 438.292969 40.304688 466.820312 40.304688 L 747.824219 40.304688 C 776.355469 40.304688 799.480469 63.441406 799.480469 91.984375 L 799.480469 503.621094 C 799.480469 532.160156 776.355469 555.296875 747.824219 555.296875 L 353.667969 555.296875 C 325.140625 555.296875 302.015625 532.160156 302.015625 503.621094 " fill-opacity="1" fill-rule="nonzero"/><g fill="#ffffff" fill-opacity="1"><g transform="translate(472.34798, 188.123749)"><g><path d="M 26.34375 0.890625 C 19.40625 0.890625 13.851562 -1.285156 9.6875 -5.640625 C 5.519531 -9.992188 3.4375 -15.96875 3.4375 -23.5625 L 3.4375 -67.390625 C 3.4375 -76.828125 5.316406 -83.941406 9.078125 -88.734375 C 12.835938 -93.535156 18.738281 -95.9375 26.78125 -95.9375 C 33.789062 -95.9375 39.429688 -94.019531 43.703125 -90.1875 C 47.984375 -86.351562 50.125 -80.820312 50.125 -73.59375 L 50.125 -57.203125 L 31.203125 -57.203125 L 31.203125 -71.265625 C 31.203125 -73.992188 30.867188 -75.875 30.203125 -76.90625 C 29.546875 -77.9375 28.40625 -78.453125 26.78125 -78.453125 C 25.082031 -78.453125 23.921875 -77.863281 23.296875 -76.6875 C 22.671875 -75.507812 22.359375 -73.773438 22.359375 -71.484375 L 22.359375 -23.796875 C 22.359375 -21.285156 22.722656 -19.457031 23.453125 -18.3125 C 24.191406 -17.164062 25.300781 -16.59375 26.78125 -16.59375 C 29.726562 -16.59375 31.203125 -18.992188 31.203125 -23.796875 L 31.203125 -40.9375 L 50.34375 -40.9375 L 50.34375 -23.015625 C 50.34375 -7.078125 42.34375 0.890625 26.34375 0.890625 Z M 26.34375 0.890625 "/></g></g></g><g fill="#ffffff" fill-opacity="1"><g transform="translate(537.637973, 188.123749)"><g><path d="M 26.890625 0.890625 C 19.210938 0.890625 13.382812 -1.453125 9.40625 -6.140625 C 5.425781 -10.828125 3.4375 -17.410156 3.4375 -25.890625 L 3.4375 -71.15625 C 3.4375 -79.34375 5.425781 -85.519531 9.40625 -89.6875 C 13.382812 -93.851562 19.210938 -95.9375 26.890625 -95.9375 C 34.554688 -95.9375 40.378906 -93.851562 44.359375 -89.6875 C 48.347656 -85.519531 50.34375 -79.34375 50.34375 -71.15625 L 50.34375 -25.890625 C 50.34375 -17.335938 48.347656 -10.734375 44.359375 -6.078125 C 40.378906 -1.429688 34.554688 0.890625 26.890625 0.890625 Z M 26.890625 -16.59375 C 28.585938 -16.59375 29.726562 -17.332031 30.3125 -18.8125 C 30.90625 -20.289062 31.203125 -22.359375 31.203125 -25.015625 L 31.203125 -71.484375 C 31.203125 -73.546875 30.925781 -75.222656 30.375 -76.515625 C 29.820312 -77.804688 28.695312 -78.453125 27 -78.453125 C 23.820312 -78.453125 22.234375 -76.054688 22.234375 -71.265625 L 22.234375 -24.890625 C 22.234375 -22.160156 22.566406 -20.09375 23.234375 -18.6875 C 23.898438 -17.289062 25.117188 -16.59375 26.890625 -16.59375 Z M 26.890625 -16.59375 "/></g></g></g><g fill="#ffffff" fill-opacity="1"><g transform="translate(604.255896, 188.123749)"><g><path d="M 4.203125 -95.046875 L 30.4375 -95.046875 C 37.21875 -95.046875 42.304688 -93.164062 45.703125 -89.40625 C 49.097656 -85.644531 50.832031 -80.078125 50.90625 -72.703125 L 51.125 -28.21875 C 51.195312 -18.84375 49.570312 -11.796875 46.25 -7.078125 C 42.9375 -2.359375 37.441406 0 29.765625 0 L 4.203125 0 Z M 26.671875 -16.8125 C 30.140625 -16.8125 31.875 -18.507812 31.875 -21.90625 L 31.875 -70.9375 C 31.875 -73.070312 31.707031 -74.671875 31.375 -75.734375 C 31.039062 -76.804688 30.429688 -77.523438 29.546875 -77.890625 C 28.660156 -78.265625 27.296875 -78.453125 25.453125 -78.453125 L 23.34375 -78.453125 L 23.34375 -16.8125 Z M 26.671875 -16.8125 "/></g></g></g><g fill="#ffffff" fill-opacity="1"><g transform="translate(671.648429, 188.123749)"><g><path d="M 4.203125 0 L 4.203125 -95.046875 L 42.265625 -95.046875 L 42.265625 -76.6875 L 23.5625 -76.6875 L 23.5625 -58.203125 L 41.5 -58.203125 L 41.5 -40.28125 L 23.5625 -40.28125 L 23.5625 -18.484375 L 43.484375 -18.484375 L 43.484375 0 Z M 4.203125 0 "/></g></g></g><g fill="#ffffff" fill-opacity="1"><g transform="translate(730.077516, 188.123749)"><g><path d="M 2.984375 0 L 2.984375 -16.15625 L 22.359375 -16.15625 L 22.359375 0 Z M 2.984375 0 "/></g></g></g><g fill="#ffffff" fill-opacity="1"><g transform="translate(281.9125, 342.265513)"><g><path d="M 26.34375 0.890625 C 19.40625 0.890625 13.851562 -1.285156 9.6875 -5.640625 C 5.519531 -9.992188 3.4375 -15.96875 3.4375 -23.5625 L 3.4375 -67.390625 C 3.4375 -76.828125 5.316406 -83.941406 9.078125 -88.734375 C 12.835938 -93.535156 18.738281 -95.9375 26.78125 -95.9375 C 33.789062 -95.9375 39.429688 -94.019531 43.703125 -90.1875 C 47.984375 -86.351562 50.125 -80.820312 50.125 -73.59375 L 50.125 -57.203125 L 31.203125 -57.203125 L 31.203125 -71.265625 C 31.203125 -73.992188 30.867188 -75.875 30.203125 -76.90625 C 29.546875 -77.9375 28.40625 -78.453125 26.78125 -78.453125 C 25.082031 -78.453125 23.921875 -77.863281 23.296875 -76.6875 C 22.671875 -75.507812 22.359375 -73.773438 22.359375 -71.484375 L 22.359375 -23.796875 C 22.359375 -21.285156 22.722656 -19.457031 23.453125 -18.3125 C 24.191406 -17.164062 25.300781 -16.59375 26.78125 -16.59375 C 29.726562 -16.59375 31.203125 -18.992188 31.203125 -23.796875 L 31.203125 -40.9375 L 50.34375 -40.9375 L 50.34375 -23.015625 C 50.34375 -7.078125 42.34375 0.890625 26.34375 0.890625 Z M 26.34375 0.890625 "/></g></g></g><g fill="#ffffff" fill-opacity="1"><g transform="translate(347.202493, 342.265513)"><g><path d="M 26.890625 0.890625 C 19.210938 0.890625 13.382812 -1.453125 9.40625 -6.140625 C 5.425781 -10.828125 3.4375 -17.410156 3.4375 -25.890625 L 3.4375 -71.15625 C 3.4375 -79.34375 5.425781 -85.519531 9.40625 -89.6875 C 13.382812 -93.851562 19.210938 -95.9375 26.890625 -95.9375 C 34.554688 -95.9375 40.378906 -93.851562 44.359375 -89.6875 C 48.347656 -85.519531 50.34375 -79.34375 50.34375 -71.15625 L 50.34375 -25.890625 C 50.34375 -17.335938 48.347656 -10.734375 44.359375 -6.078125 C 40.378906 -1.429688 34.554688 0.890625 26.890625 0.890625 Z M 26.890625 -16.59375 C 28.585938 -16.59375 29.726562 -17.332031 30.3125 -18.8125 C 30.90625 -20.289062 31.203125 -22.359375 31.203125 -25.015625 L 31.203125 -71.484375 C 31.203125 -73.546875 30.925781 -75.222656 30.375 -76.515625 C 29.820312 -77.804688 28.695312 -78.453125 27 -78.453125 C 23.820312 -78.453125 22.234375 -76.054688 22.234375 -71.265625 L 22.234375 -24.890625 C 22.234375 -22.160156 22.566406 -20.09375 23.234375 -18.6875 C 23.898438 -17.289062 25.117188 -16.59375 26.890625 -16.59375 Z M 26.890625 -16.59375 "/></g></g></g><g fill="#ffffff" fill-opacity="1"><g transform="translate(413.820416, 342.265513)"><g><path d="M 4.203125 0 L 4.203125 -95.046875 L 23.796875 -95.046875 L 32.53125 -49.578125 L 32.53125 -95.046875 L 50.90625 -95.046875 L 50.90625 0 L 32.3125 0 L 22.796875 -47.578125 L 22.796875 0 Z M 4.203125 0 "/></g></g></g><g fill="#ffffff" fill-opacity="1"><g transform="translate(481.766252, 342.265513)"><g><path d="M 4.203125 0 L 4.203125 -95.046875 L 23.796875 -95.046875 L 32.53125 -49.578125 L 32.53125 -95.046875 L 50.90625 -95.046875 L 50.90625 0 L 32.3125 0 L 22.796875 -47.578125 L 22.796875 0 Z M 4.203125 0 "/></g></g></g><g fill="#ffffff" fill-opacity="1"><g transform="translate(549.712087, 342.265513)"><g><path d="M 4.203125 0 L 4.203125 -95.046875 L 42.265625 -95.046875 L 42.265625 -76.6875 L 23.5625 -76.6875 L 23.5625 -58.203125 L 41.5 -58.203125 L 41.5 -40.28125 L 23.5625 -40.28125 L 23.5625 -18.484375 L 43.484375 -18.484375 L 43.484375 0 Z M 4.203125 0 "/></g></g></g><g fill="#ffffff" fill-opacity="1"><g transform="translate(608.141192, 342.265513)"><g><path d="M 26.34375 0.890625 C 19.40625 0.890625 13.851562 -1.285156 9.6875 -5.640625 C 5.519531 -9.992188 3.4375 -15.96875 3.4375 -23.5625 L 3.4375 -67.390625 C 3.4375 -76.828125 5.316406 -83.941406 9.078125 -88.734375 C 12.835938 -93.535156 18.738281 -95.9375 26.78125 -95.9375 C 33.789062 -95.9375 39.429688 -94.019531 43.703125 -90.1875 C 47.984375 -86.351562 50.125 -80.820312 50.125 -73.59375 L 50.125 -57.203125 L 31.203125 -57.203125 L 31.203125 -71.265625 C 31.203125 -73.992188 30.867188 -75.875 30.203125 -76.90625 C 29.546875 -77.9375 28.40625 -78.453125 26.78125 -78.453125 C 25.082031 -78.453125 23.921875 -77.863281 23.296875 -76.6875 C 22.671875 -75.507812 22.359375 -73.773438 22.359375 -71.484375 L 22.359375 -23.796875 C 22.359375 -21.285156 22.722656 -19.457031 23.453125 -18.3125 C 24.191406 -17.164062 25.300781 -16.59375 26.78125 -16.59375 C 29.726562 -16.59375 31.203125 -18.992188 31.203125 -23.796875 L 31.203125 -40.9375 L 50.34375 -40.9375 L 50.34375 -23.015625 C 50.34375 -7.078125 42.34375 0.890625 26.34375 0.890625 Z M 26.34375 0.890625 "/></g></g></g><g fill="#ffffff" fill-opacity="1"><g transform="translate(673.431185, 342.265513)"><g><path d="M 12.390625 0 L 12.390625 -76.796875 L 1.109375 -76.796875 L 1.109375 -95.046875 L 42.71875 -95.046875 L 42.71875 -76.796875 L 31.421875 -76.796875 L 31.421875 0 Z M 12.390625 0 "/></g></g></g><g fill="#ffffff" fill-opacity="1"><g transform="translate(730.08971, 342.265513)"><g><path d="M 2.984375 0 L 2.984375 -16.15625 L 22.359375 -16.15625 L 22.359375 0 Z M 2.984375 0 "/></g></g></g><g fill="#ffffff" fill-opacity="1"><g transform="translate(359.150122, 496.407277)"><g><path d="M 26.34375 0.890625 C 19.40625 0.890625 13.851562 -1.285156 9.6875 -5.640625 C 5.519531 -9.992188 3.4375 -15.96875 3.4375 -23.5625 L 3.4375 -67.390625 C 3.4375 -76.828125 5.316406 -83.941406 9.078125 -88.734375 C 12.835938 -93.535156 18.738281 -95.9375 26.78125 -95.9375 C 33.789062 -95.9375 39.429688 -94.019531 43.703125 -90.1875 C 47.984375 -86.351562 50.125 -80.820312 50.125 -73.59375 L 50.125 -57.203125 L 31.203125 -57.203125 L 31.203125 -71.265625 C 31.203125 -73.992188 30.867188 -75.875 30.203125 -76.90625 C 29.546875 -77.9375 28.40625 -78.453125 26.78125 -78.453125 C 25.082031 -78.453125 23.921875 -77.863281 23.296875 -76.6875 C 22.671875 -75.507812 22.359375 -73.773438 22.359375 -71.484375 L 22.359375 -23.796875 C 22.359375 -21.285156 22.722656 -19.457031 23.453125 -18.3125 C 24.191406 -17.164062 25.300781 -16.59375 26.78125 -16.59375 C 29.726562 -16.59375 31.203125 -18.992188 31.203125 -23.796875 L 31.203125 -40.9375 L 50.34375 -40.9375 L 50.34375 -23.015625 C 50.34375 -7.078125 42.34375 0.890625 26.34375 0.890625 Z M 26.34375 0.890625 "/></g></g></g><g fill="#ffffff" fill-opacity="1"><g transform="translate(424.440115, 496.407277)"><g><path d="M 4.203125 -95.046875 L 33.421875 -95.046875 C 38.066406 -95.046875 41.660156 -93.992188 44.203125 -91.890625 C 46.753906 -89.796875 48.472656 -86.847656 49.359375 -83.046875 C 50.242188 -79.242188 50.6875 -74.394531 50.6875 -68.5 C 50.6875 -63.113281 49.984375 -58.90625 48.578125 -55.875 C 47.171875 -52.851562 44.738281 -50.753906 41.28125 -49.578125 C 44.15625 -48.984375 46.238281 -47.539062 47.53125 -45.25 C 48.820312 -42.96875 49.46875 -39.875 49.46875 -35.96875 L 49.234375 0 L 30.65625 0 L 30.65625 -37.1875 C 30.65625 -39.84375 30.132812 -41.535156 29.09375 -42.265625 C 28.0625 -43.003906 26.179688 -43.375 23.453125 -43.375 L 23.453125 0 L 4.203125 0 Z M 28.109375 -59.859375 C 30.765625 -59.859375 32.09375 -62.738281 32.09375 -68.5 C 32.09375 -71.007812 31.976562 -72.890625 31.75 -74.140625 C 31.53125 -75.390625 31.125 -76.253906 30.53125 -76.734375 C 29.945312 -77.210938 29.101562 -77.453125 28 -77.453125 L 23.5625 -77.453125 L 23.5625 -59.859375 Z M 28.109375 -59.859375 "/></g></g></g><g fill="#ffffff" fill-opacity="1"><g transform="translate(490.062085, 496.407277)"><g><path d="M 4.203125 0 L 4.203125 -95.046875 L 42.265625 -95.046875 L 42.265625 -76.6875 L 23.5625 -76.6875 L 23.5625 -58.203125 L 41.5 -58.203125 L 41.5 -40.28125 L 23.5625 -40.28125 L 23.5625 -18.484375 L 43.484375 -18.484375 L 43.484375 0 Z M 4.203125 0 "/></g></g></g><g fill="#ffffff" fill-opacity="1"><g transform="translate(548.491173, 496.407277)"><g><path d="M 1.65625 0 L 10.84375 -95.046875 L 43.046875 -95.046875 L 52.125 0 L 34.078125 0 L 32.75 -15.375 L 21.25 -15.375 L 20.140625 0 Z M 22.6875 -30.546875 L 31.3125 -30.546875 L 27.109375 -78.890625 L 26.21875 -78.890625 Z M 22.6875 -30.546875 "/></g></g></g><g fill="#ffffff" fill-opacity="1"><g transform="translate(614.998424, 496.407277)"><g><path d="M 12.390625 0 L 12.390625 -76.796875 L 1.109375 -76.796875 L 1.109375 -95.046875 L 42.71875 -95.046875 L 42.71875 -76.796875 L 31.421875 -76.796875 L 31.421875 0 Z M 12.390625 0 "/></g></g></g><g fill="#ffffff" fill-opacity="1"><g transform="translate(671.656931, 496.407277)"><g><path d="M 4.203125 0 L 4.203125 -95.046875 L 42.265625 -95.046875 L 42.265625 -76.6875 L 23.5625 -76.6875 L 23.5625 -58.203125 L 41.5 -58.203125 L 41.5 -40.28125 L 23.5625 -40.28125 L 23.5625 -18.484375 L 43.484375 -18.484375 L 43.484375 0 Z M 4.203125 0 "/></g></g></g><g fill="#ffffff" fill-opacity="1"><g transform="translate(730.086019, 496.407277)"><g><path d="M 2.984375 0 L 2.984375 -16.15625 L 22.359375 -16.15625 L 22.359375 0 Z M 2.984375 0 "/></g></g></g></svg>